<?xml version="1.0" encoding="UTF-8" standalone="no"?>
<!-- Created with Inkscape (http://www.inkscape.org/) -->

<svg
   width="4.8827529mm"
   height="8.7312527mm"
   viewBox="0 0 4.8827529 8.7312527"
   version="1.1"
   id="svg5"
   xml:space="preserve"
   inkscape:version="1.2.2 (732a01da63, 2022-12-09)"
   sodipodi:docname="drawing.svg"
   xmlns:inkscape="http://www.inkscape.org/namespaces/inkscape"
   xmlns:sodipodi="http://sodipodi.sourceforge.net/DTD/sodipodi-0.dtd"
   xmlns="http://www.w3.org/2000/svg"
   xmlns:svg="http://www.w3.org/2000/svg"><sodipodi:namedview
     id="namedview7"
     pagecolor="#ffffff"
     bordercolor="#000000"
     borderopacity="0.25"
     inkscape:showpageshadow="2"
     inkscape:pageopacity="0.0"
     inkscape:pagecheckerboard="0"
     inkscape:deskcolor="#d1d1d1"
     inkscape:document-units="mm"
     showgrid="false"
     inkscape:zoom="5.9651515"
     inkscape:cx="37.132334"
     inkscape:cy="24.475489"
     inkscape:window-width="1920"
     inkscape:window-height="1017"
     inkscape:window-x="-8"
     inkscape:window-y="-8"
     inkscape:window-maximized="1"
     inkscape:current-layer="layer1" /><defs
     id="defs2" /><g
     inkscape:label="Layer 1"
     inkscape:groupmode="layer"
     id="layer1"
     transform="translate(-143.39733,-121.24728)"><path
       style="color:#000000;fill:#23b123;stroke-linecap:round;stroke-linejoin:round;-inkscape-stroke:none"
       d="m 146.88867,121.24805 c -0.59206,0 -1.15978,0.23636 -1.57812,0.6582 -0.41834,0.42182 -0.6543,0.99372 -0.6543,1.58984 v 1.13868 h -1.12695 a 0.13230472,0.13230472 0 0 0 -0.13282,0.13086 v 1.69335 a 0.13230472,0.13230472 0 0 0 0.13282,0.13282 h 1.12695 v 3.2539 a 0.13230472,0.13230472 0 0 0 0.13281,0.13282 h 1.67969 a 0.13230472,0.13230472 0 0 0 0.13281,-0.13282 v -3.2539 h 1.12696 a 0.13230472,0.13230472 0 0 0 0.12695,-0.0996 l 0.41992,-1.69336 a 0.13230472,0.13230472 0 0 0 -0.12695,-0.16406 h -1.54688 v -1.13868 c 0,-0.0776 0.0299,-0.15056 0.084,-0.20507 a 0.13230472,0.13230472 0 0 0 0,-0.002 c 0.054,-0.0545 0.1271,-0.084 0.20312,-0.084 h 1.25977 a 0.13230472,0.13230472 0 0 0 0.13086,-0.13281 v -1.69336 a 0.13230472,0.13230472 0 0 0 -0.13086,-0.13086 z m 0,0.26367 h 1.12695 v 1.42969 h -1.12695 c -0.14666,0 -0.28722,0.0578 -0.39062,0.16211 -0.10347,0.10428 -0.16211,0.24558 -0.16211,0.39257 v 1.26954 a 0.13230472,0.13230472 0 0 0 0.13281,0.13281 h 1.50977 l -0.35352,1.42969 h -1.15625 a 0.13230472,0.13230472 0 0 0 -0.13281,0.13085 v 3.25586 h -1.41407 v -3.25586 a 0.13230472,0.13230472 0 0 0 -0.13281,-0.13085 h -1.12695 v -1.42969 h 1.12695 a 0.13230472,0.13230472 0 0 0 0.13281,-0.13281 v -1.26954 c 0,-0.52663 0.20718,-1.03222 0.57618,-1.40429 0.369,-0.37209 0.86921,-0.58008 1.39062,-0.58008 z"
       id="path165" /></g></svg>
