<svg width="32" height="32" viewBox="0 0 32 32" fill="none" xmlns="http://www.w3.org/2000/svg">
<path fill-rule="evenodd" clip-rule="evenodd" d="M22.6666 7C23.2189 7 23.6666 7.44772 23.6666 8V22.597C23.6666 22.5971 23.6666 22.5969 23.6666 22.597C23.6667 23.1288 23.4902 23.6458 23.1648 24.0663C22.8394 24.487 22.3835 24.7876 21.8686 24.921C21.3538 25.0544 20.8093 25.0131 20.3205 24.8034C19.8318 24.5938 19.4266 24.2278 19.1684 23.763C19.1684 23.7629 19.1684 23.763 19.1684 23.763L11.0831 9.20828C11.0401 9.13079 10.9724 9.06957 10.8909 9.03463C10.8095 8.99969 10.7187 8.9928 10.6329 9.01503C10.5471 9.03727 10.4711 9.08737 10.4169 9.15748C10.3626 9.22759 10.3332 9.31373 10.3333 9.40236V24C10.3333 24.5523 9.88554 25 9.33325 25C8.78097 25 8.33325 24.5523 8.33325 24L8.33325 9.40297C8.33325 9.40287 8.33325 9.40307 8.33325 9.40297C8.33316 8.87125 8.50965 8.35424 8.83501 7.93368C9.16044 7.51304 9.61636 7.2124 10.1312 7.07899C10.646 6.94557 11.1906 6.98694 11.6793 7.19658C12.168 7.4062 12.5733 7.77218 12.8314 8.23705C12.8315 8.23712 12.8314 8.23698 12.8314 8.23705L20.9168 22.7917C20.9598 22.8692 21.0274 22.9304 21.1089 22.9654C21.1904 23.0003 21.2811 23.0072 21.3669 22.985C21.4527 22.9627 21.5287 22.9126 21.583 22.8425C21.6372 22.7724 21.6666 22.6863 21.6666 22.5976L21.6666 8C21.6666 7.44772 22.1143 7 22.6666 7Z" fill="white"/>
<path fill-rule="evenodd" clip-rule="evenodd" d="M5.66663 13.3333C5.66663 12.781 6.11434 12.3333 6.66663 12.3333H25.3333C25.8856 12.3333 26.3333 12.781 26.3333 13.3333C26.3333 13.8855 25.8856 14.3333 25.3333 14.3333H6.66663C6.11434 14.3333 5.66663 13.8855 5.66663 13.3333Z" fill="white"/>
<path fill-rule="evenodd" clip-rule="evenodd" d="M5.66663 18.6667C5.66663 18.1145 6.11434 17.6667 6.66663 17.6667H25.3333C25.8856 17.6667 26.3333 18.1145 26.3333 18.6667C26.3333 19.219 25.8856 19.6667 25.3333 19.6667H6.66663C6.11434 19.6667 5.66663 19.219 5.66663 18.6667Z" fill="white"/>
</svg>
